<?xml version="1.0" standalone="no"?>
<!DOCTYPE svg PUBLIC "-//W3C//DTD SVG 20010904//EN"
 "http://www.w3.org/TR/2001/REC-SVG-20010904/DTD/svg10.dtd">
<svg version="1.0" xmlns="http://www.w3.org/2000/svg"
 width="1024.000000pt" height="1024.000000pt" viewBox="0 0 1024.000000 1024.000000"
 preserveAspectRatio="xMidYMid meet"
 fill="#000" stroke="none"
 >
<g transform="translate(0.000000,1024.000000) scale(0.100000,-0.100000)"
fill="#000" stroke='none'>
<path d="M4910 8540 c-647 -51 -1210 -253 -1755 -628 -437 -300 -826 -731
-1084 -1201 -235 -425 -372 -869 -422 -1365 -15 -149 -6 -553 15 -722 102
-804 454 -1508 1042 -2086 244 -239 497 -420 814 -582 554 -283 1090 -408
1685 -393 538 14 985 124 1470 362 337 165 618 359 856 590 141 138 233 237
319 346 477 599 745 1336 767 2115 11 386 -34 711 -151 1082 -224 712 -696
1372 -1293 1809 -432 315 -926 532 -1423 624 -241 45 -619 67 -840 49z m-713
-1532 c554 -710 1160 -1504 1468 -1923 376 -512 1103 -1466 1408 -1850 l167
-210 0 -155 0 -155 -515 1 -515 1 -58 74 c-32 41 -178 232 -323 424 -325 429
-947 1249 -1067 1405 -201 263 -411 535 -636 826 -132 170 -253 327 -270 349
-68 88 -423 544 -471 605 -114 144 -294 378 -333 434 l-42 59 0 224 0 223 464
0 463 0 260 -332z m3043 -400 l-1 -733 -102 -49 c-90 -43 -112 -59 -192 -140
-68 -68 -101 -111 -132 -171 -108 -212 -120 -460 -32 -670 75 -177 248 -339
421 -395 l38 -11 2 -517 c2 -284 0 -521 -3 -525 -3 -4 -129 144 -280 329 -151
185 -317 389 -369 453 -207 253 -553 688 -581 730 l-29 45 0 1170 c0 644 3
1181 6 1194 l6 22 624 0 624 0 0 -732z m-3935 -583 c525 -660 909 -1140 920
-1147 7 -5 10 -358 10 -1085 l0 -1078 -612 0 -613 0 0 1840 c0 1042 4 1835 9
1830 4 -6 134 -167 286 -360z"

fill="#000" stroke="none" />
</g>
</svg>
